<!DOCTYPE svg PUBLIC "-//W3C//DTD SVG 1.1//EN" "http://www.w3.org/Graphics/SVG/1.1/DTD/svg11.dtd">
<!-- Uploaded to: SVG Repo, www.svgrepo.com, Transformed by: SVG Repo Mixer Tools -->
<svg width="800px" height="800px" viewBox="0 0 64 64" xmlns="http://www.w3.org/2000/svg" fill="#2db9a1">
<g id="SVGRepo_bgCarrier" stroke-width="0"/>
<g id="SVGRepo_tracerCarrier" stroke-linecap="round" stroke-linejoin="round"/>
<g id="SVGRepo_iconCarrier"> <defs> <style>.cls-1{fill:none;stroke:#2db9a1;stroke-linejoin:round;stroke-width:2px;}</style> </defs> <title/> <g data-name="Layer 4" id="Layer_4"> <rect class="cls-1" height="22" transform="translate(42 102) rotate(180)" width="10" x="16" y="40"/> <rect class="cls-1" height="18" transform="translate(26 102) rotate(180)" width="6" x="10" y="42"/> <rect class="cls-1" height="22" width="10" x="46" y="40"/> <rect class="cls-1" height="18" width="6" x="56" y="42"/> <rect class="cls-1" height="10" width="20" x="26" y="46"/> <polyline class="cls-1" points="56 40 56 2 2 2 2 46 10 46"/> <line class="cls-1" x1="2" x2="56" y1="12" y2="12"/> <rect class="cls-1" height="6" width="6" x="6" y="16"/> <rect class="cls-1" height="6" width="6" x="16" y="16"/> <rect class="cls-1" height="6" width="6" x="26" y="16"/> <rect class="cls-1" height="6" width="6" x="36" y="16"/> <rect class="cls-1" height="6" width="6" x="6" y="26"/> <rect class="cls-1" height="6" width="6" x="16" y="26"/> <rect class="cls-1" height="6" width="6" x="26" y="26"/> <rect class="cls-1" height="6" width="6" x="36" y="26"/> <rect class="cls-1" height="6" width="6" x="46" y="16"/> <rect class="cls-1" height="6" width="6" x="46" y="26"/> <rect class="cls-1" height="6" width="6" x="6" y="36"/> <polyline class="cls-1" points="16 40 16 36 22 36 22 40"/> <rect class="cls-1" height="6" width="6" x="26" y="36"/> <rect class="cls-1" height="6" width="6" x="36" y="36"/> <polyline class="cls-1" points="46 40 46 36 52 36 52 40"/> <line class="cls-1" x1="2" x2="15" y1="6" y2="6"/> <line class="cls-1" x1="43" x2="56" y1="8" y2="8"/> </g> </g>
</svg>