<!DOCTYPE svg PUBLIC "-//W3C//DTD SVG 1.1//EN" "http://www.w3.org/Graphics/SVG/1.1/DTD/svg11.dtd">
<!-- Uploaded to: SVG Repo, www.svgrepo.com, Transformed by: SVG Repo Mixer Tools -->
<svg width="800px" height="800px" viewBox="0 0 512 512" id="Layer_1" version="1.1" xml:space="preserve" xmlns="http://www.w3.org/2000/svg" xmlns:xlink="http://www.w3.org/1999/xlink" fill="#36bfbd">
<g id="SVGRepo_bgCarrier" stroke-width="0"/>
<g id="SVGRepo_tracerCarrier" stroke-linecap="round" stroke-linejoin="round"/>
<g id="SVGRepo_iconCarrier"> <style type="text/css"> .st0{fill:#36bfbd;} </style> <g> <path class="st0" d="M426,105.3H145v44.9h281V105.3z M417.4,141.6H153.6v-27.7h263.7V141.6z"/> <path class="st0" d="M314.8,173.4H145v88.1h169.8V173.4z M306.2,252.8H153.6V182h152.5V252.8z"/> <path class="st0" d="M421.7,174.2h-71.5c-1.9,0-3.5,1.6-3.5,3.5s1.6,3.5,3.5,3.5h71.5c1.9,0,3.5-1.6,3.5-3.5 S423.6,174.2,421.7,174.2z"/> <path class="st0" d="M421.7,212h-71.5c-1.9,0-3.5,1.6-3.5,3.5s1.6,3.5,3.5,3.5h71.5c1.9,0,3.5-1.6,3.5-3.5S423.6,212,421.7,212z"/> <path class="st0" d="M421.7,249.9h-46c-1.9,0-3.5,1.6-3.5,3.5s1.6,3.5,3.5,3.5h46c1.9,0,3.5-1.6,3.5-3.5S423.6,249.9,421.7,249.9z"/> <path class="st0" d="M350.2,256.9H363c1.9,0,3.5-1.6,3.5-3.5s-1.6-3.5-3.5-3.5h-12.8c-1.9,0-3.5,1.6-3.5,3.5 S348.3,256.9,350.2,256.9z"/> <path class="st0" d="M421.7,287.7h-10.5c-1.9,0-3.5,1.6-3.5,3.5s1.6,3.5,3.5,3.5h10.5c1.9,0,3.5-1.6,3.5-3.5 S423.6,287.7,421.7,287.7z"/> <path class="st0" d="M350.2,294.7h46c1.9,0,3.5-1.6,3.5-3.5s-1.6-3.5-3.5-3.5h-46c-1.9,0-3.5,1.6-3.5,3.5S348.3,294.7,350.2,294.7z "/> <path class="st0" d="M421.7,325.5h-39.2c-1.9,0-3.5,1.6-3.5,3.5s1.6,3.5,3.5,3.5h39.2c1.9,0,3.5-1.6,3.5-3.5 S423.6,325.5,421.7,325.5z"/> <path class="st0" d="M350.2,332.5h15c1.9,0,3.5-1.6,3.5-3.5s-1.6-3.5-3.5-3.5h-15c-1.9,0-3.5,1.6-3.5,3.5S348.3,332.5,350.2,332.5z "/> <path class="st0" d="M421.7,363.3h-71.5c-1.9,0-3.5,1.6-3.5,3.5s1.6,3.5,3.5,3.5h71.5c1.9,0,3.5-1.6,3.5-3.5 S423.6,363.3,421.7,363.3z"/> <path class="st0" d="M421.7,401.2h-71.5c-1.9,0-3.5,1.6-3.5,3.5s1.6,3.5,3.5,3.5h71.5c1.9,0,3.5-1.6,3.5-3.5 S423.6,401.2,421.7,401.2z"/> <path class="st0" d="M320.1,401.2H277c-1.9,0-3.5,1.6-3.5,3.5s1.6,3.5,3.5,3.5h43.1c1.9,0,3.5-1.6,3.5-3.5S322,401.2,320.1,401.2z"/> <path class="st0" d="M260,401.2h-11.3c-1.9,0-3.5,1.6-3.5,3.5s1.6,3.5,3.5,3.5H260c1.9,0,3.5-1.6,3.5-3.5S261.9,401.2,260,401.2z"/> <path class="st0" d="M320.1,363.3h-71.5c-1.9,0-3.5,1.6-3.5,3.5s1.6,3.5,3.5,3.5h71.5c1.9,0,3.5-1.6,3.5-3.5S322,363.3,320.1,363.3 z"/> <path class="st0" d="M320.1,325.5h-71.5c-1.9,0-3.5,1.6-3.5,3.5s1.6,3.5,3.5,3.5h71.5c1.9,0,3.5-1.6,3.5-3.5S322,325.5,320.1,325.5 z"/> <path class="st0" d="M320.1,287.7H302c-1.9,0-3.5,1.6-3.5,3.5s1.6,3.5,3.5,3.5h18.2c1.9,0,3.5-1.6,3.5-3.5S322,287.7,320.1,287.7z"/> <path class="st0" d="M248.6,294.7h35.7c1.9,0,3.5-1.6,3.5-3.5s-1.6-3.5-3.5-3.5h-35.7c-1.9,0-3.5,1.6-3.5,3.5 S246.7,294.7,248.6,294.7z"/> <path class="st0" d="M220.8,401.2h-71.5c-1.9,0-3.5,1.6-3.5,3.5s1.6,3.5,3.5,3.5h71.5c1.9,0,3.5-1.6,3.5-3.5 S222.7,401.2,220.8,401.2z"/> <path class="st0" d="M220.8,363.3h-71.5c-1.9,0-3.5,1.6-3.5,3.5s1.6,3.5,3.5,3.5h71.5c1.9,0,3.5-1.6,3.5-3.5 S222.7,363.3,220.8,363.3z"/> <path class="st0" d="M220.8,325.5h-15.9c-1.9,0-3.5,1.6-3.5,3.5s1.6,3.5,3.5,3.5h15.9c1.9,0,3.5-1.6,3.5-3.5 S222.7,325.5,220.8,325.5z"/> <path class="st0" d="M149.3,332.5h40.9c1.9,0,3.5-1.6,3.5-3.5s-1.6-3.5-3.5-3.5h-40.9c-1.9,0-3.5,1.6-3.5,3.5 S147.4,332.5,149.3,332.5z"/> <path class="st0" d="M220.8,287.7h-71.5c-1.9,0-3.5,1.6-3.5,3.5s1.6,3.5,3.5,3.5h71.5c1.9,0,3.5-1.6,3.5-3.5 S222.7,287.7,220.8,287.7z"/> <path class="st0" d="M421.7,192.4h-21c-1.9,0-3.5,1.6-3.5,3.5s1.6,3.5,3.5,3.5h21c1.9,0,3.5-1.6,3.5-3.5S423.6,192.4,421.7,192.4z"/> <path class="st0" d="M350.2,199.4h30.1c1.9,0,3.5-1.6,3.5-3.5s-1.6-3.5-3.5-3.5h-30.1c-1.9,0-3.5,1.6-3.5,3.5 S348.3,199.4,350.2,199.4z"/> <path class="st0" d="M421.7,230.2h-71.5c-1.9,0-3.5,1.6-3.5,3.5s1.6,3.5,3.5,3.5h71.5c1.9,0,3.5-1.6,3.5-3.5 S423.6,230.2,421.7,230.2z"/> <path class="st0" d="M421.7,268h-71.5c-1.9,0-3.5,1.6-3.5,3.5s1.6,3.5,3.5,3.5h71.5c1.9,0,3.5-1.6,3.5-3.5S423.6,268,421.7,268z"/> <path class="st0" d="M421.7,305.8h-71.5c-1.9,0-3.5,1.6-3.5,3.5s1.6,3.5,3.5,3.5h71.5c1.9,0,3.5-1.6,3.5-3.5 S423.6,305.8,421.7,305.8z"/> <path class="st0" d="M421.7,343.7h-71.5c-1.9,0-3.5,1.6-3.5,3.5s1.6,3.5,3.5,3.5h71.5c1.9,0,3.5-1.6,3.5-3.5 S423.6,343.7,421.7,343.7z"/> <path class="st0" d="M421.7,381.5h-14.8c-1.9,0-3.5,1.6-3.5,3.5s1.6,3.5,3.5,3.5h14.8c1.9,0,3.5-1.6,3.5-3.5 S423.6,381.5,421.7,381.5z"/> <path class="st0" d="M350.2,388.5h39.1c1.9,0,3.5-1.6,3.5-3.5s-1.6-3.5-3.5-3.5h-39.1c-1.9,0-3.5,1.6-3.5,3.5 S348.3,388.5,350.2,388.5z"/> <path class="st0" d="M320.1,381.5h-71.5c-1.9,0-3.5,1.6-3.5,3.5s1.6,3.5,3.5,3.5h71.5c1.9,0,3.5-1.6,3.5-3.5S322,381.5,320.1,381.5 z"/> <path class="st0" d="M320.1,343.7h-22.7c-1.9,0-3.5,1.6-3.5,3.5s1.6,3.5,3.5,3.5h22.7c1.9,0,3.5-1.6,3.5-3.5S322,343.7,320.1,343.7 z"/> <path class="st0" d="M248.6,350.7H277c1.9,0,3.5-1.6,3.5-3.5s-1.6-3.5-3.5-3.5h-28.4c-1.9,0-3.5,1.6-3.5,3.5 S246.7,350.7,248.6,350.7z"/> <path class="st0" d="M320.1,305.8h-71.5c-1.9,0-3.5,1.6-3.5,3.5s1.6,3.5,3.5,3.5h71.5c1.9,0,3.5-1.6,3.5-3.5S322,305.8,320.1,305.8 z"/> <path class="st0" d="M220.8,381.5H180c-1.9,0-3.5,1.6-3.5,3.5s1.6,3.5,3.5,3.5h40.8c1.9,0,3.5-1.6,3.5-3.5S222.7,381.5,220.8,381.5 z"/> <path class="st0" d="M149.3,388.5h13.6c1.9,0,3.5-1.6,3.5-3.5s-1.6-3.5-3.5-3.5h-13.6c-1.9,0-3.5,1.6-3.5,3.5 S147.4,388.5,149.3,388.5z"/> <path class="st0" d="M220.8,343.7h-71.5c-1.9,0-3.5,1.6-3.5,3.5s1.6,3.5,3.5,3.5h71.5c1.9,0,3.5-1.6,3.5-3.5 S222.7,343.7,220.8,343.7z"/> <path class="st0" d="M220.8,305.8h-71.5c-1.9,0-3.5,1.6-3.5,3.5s1.6,3.5,3.5,3.5h71.5c1.9,0,3.5-1.6,3.5-3.5 S222.7,305.8,220.8,305.8z"/> <path class="st0" d="M106,68.6v172.5H47v165.9c0,20.1,16.4,36.5,36.5,36.5h345c20.1,0,36.5-16.4,36.5-36.5V68.6H106z M83.5,429.4 c-12.4,0-22.5-10.1-22.5-22.5V255.1h45v151.9C106,419.3,95.9,429.4,83.5,429.4z M451,406.9c0,12.4-10.1,22.5-22.5,22.5H112.2 c4.9-6.2,7.8-14,7.8-22.5V82.6h331V406.9z"/> </g> </g>
</svg>