<!DOCTYPE svg PUBLIC "-//W3C//DTD SVG 1.1//EN" "http://www.w3.org/Graphics/SVG/1.1/DTD/svg11.dtd">
<!-- Uploaded to: SVG Repo, www.svgrepo.com, Transformed by: SVG Repo Mixer Tools -->
<svg version="1.1" id="Layer_1" xmlns="http://www.w3.org/2000/svg" xmlns:xlink="http://www.w3.org/1999/xlink" viewBox="0 0 512 512" xml:space="preserve" width="800px" height="800px" fill="#000000">
<g id="SVGRepo_bgCarrier" stroke-width="0"/>
<g id="SVGRepo_tracerCarrier" stroke-linecap="round" stroke-linejoin="round"/>
<g id="SVGRepo_iconCarrier"> <path style="fill:#36bfbd;" d="M12.8,422.399v-307.2h486.4v307.2H12.8z"/> <path style="fill:#FEDEA1;" d="M205.943,301.387c-3.558,0-7.39-0.188-11.503-0.58l-7.996-21.615 c9.617-10.001,13.047-19.379,16.683-29.303c5.965-16.316,12.732-34.807,46.515-45.278l7.398-2.295l29.124,29.15l-11.375,8.909 c-3.695,2.893-6.289,9.591-9.045,16.674C258.884,274.712,248.525,301.387,205.943,301.387 C205.952,301.387,205.952,301.387,205.943,301.387z"/> <rect x="217.6" y="422.399" style="fill:#6D7584;" width="76.8" height="76.8"/> <path style="fill:#BCB0AD;" d="M255.889,201.198l7.748-9.003c18.714-21.734,43.836-48.529,70.741-75.426 C365.551,85.596,440.201,13.08,459.947,13.08c3.908,0,7.526,1.468,10.189,4.13c7.637,7.646,18.099,18.108-99.558,135.757 c-26.914,26.914-53.7,52.045-75.426,70.741l-9.003,7.748L255.889,201.198z"/> <path style="fill:#573A32;" d="M486.4,102.399h-48.572c39.663-42.999,60.501-75.102,41.361-94.234 c-20.403-20.403-45.884,1.152-72.849,23.97c-21.359,18.074-48.043,42.889-75.648,70.263H25.6c-14.14,0-25.6,11.46-25.6,25.6v281.6 c0,14.14,11.46,25.6,25.6,25.6h179.2v51.2H102.4c-7.074,0-12.8,5.726-12.8,12.8c0,7.074,5.726,12.8,12.8,12.8h307.2 c7.074,0,12.8-5.726,12.8-12.8c0-7.074-5.726-12.8-12.8-12.8H307.2v-51.2h179.2c14.14,0,25.6-11.46,25.6-25.6v-281.6 C512,113.859,500.54,102.399,486.4,102.399z M461.09,26.264c5.001,5.001-39.578,57.677-99.558,117.666 c-27.861,27.861-54.067,52.301-74.726,70.093l-1.809-1.809l-11.657-11.657c17.783-20.659,42.231-46.865,70.093-74.726 C403.413,65.842,456.09,21.264,461.09,26.264z M281.6,486.399h-51.2v-51.2h51.2V486.399z M486.4,409.599H25.6v-281.6h279.765 c-19.447,20.062-37.248,39.381-51.422,55.851c-2.074,2.406-3.541,5.129-4.574,7.962c-1.178,0.188-2.355,0.222-3.516,0.58 c-39.834,12.339-48.452,35.9-54.741,53.103c-3.43,9.37-6.135,16.768-13.884,24.815c-6.81,7.074-8.969,17.425-5.564,26.633 c1.306,3.533,3.345,6.656,5.905,9.225c4.122,4.122,9.626,6.801,15.65,7.381c61.986,5.973,76.604-31.642,84.454-51.849 c1.178-3.029,7.552-14.003,13.03-22.81c4.582-0.708,9.062-2.244,12.817-5.47c21.982-18.918,49.015-44.271,76.126-71.381 c11.904-11.904,23.194-23.219,33.775-34.031H486.4V409.599z M266.897,230.313c-20.309,15.898-8.619,63.787-71.219,57.754 c28.851-29.978,11.691-56.943,57.754-71.219l1.809,1.809L266.897,230.313z"/> </g>
</svg>