<!DOCTYPE svg PUBLIC "-//W3C//DTD SVG 1.1//EN" "http://www.w3.org/Graphics/SVG/1.1/DTD/svg11.dtd">
<!-- Uploaded to: SVG Repo, www.svgrepo.com, Transformed by: SVG Repo Mixer Tools -->
<svg width="800px" height="800px" viewBox="-5.29 0 64.866 64.866" xmlns="http://www.w3.org/2000/svg" fill="#000000">
<g id="SVGRepo_bgCarrier" stroke-width="0"/>
<g id="SVGRepo_tracerCarrier" stroke-linecap="round" stroke-linejoin="round"/>
<g id="SVGRepo_iconCarrier"> <g id="Group_156" data-name="Group 156" transform="translate(-80.593 -434.493)"> <path id="Path_513" data-name="Path 513" d="M112.733,485.6V437.78a1.991,1.991,0,0,0-1.99-1.991H83.879a1.991,1.991,0,0,0-1.99,1.991v34.907a1.99,1.99,0,0,0,1.99,1.99h20.165l1.985,5.8C111.888,490.333,112.733,485.6,112.733,485.6Z" fill="#ffffff" stroke="#36bfbd" stroke-linecap="round" stroke-linejoin="round" stroke-width="2.592"/> <line id="Line_94" data-name="Line 94" x2="11.696" transform="translate(87.153 445.008)" fill="#ffffff" stroke="#36bfbd" stroke-miterlimit="10" stroke-width="2.592"/> <line id="Line_95" data-name="Line 95" x2="11.696" transform="translate(87.153 452.174)" fill="#ffffff" stroke="#36bfbd" stroke-miterlimit="10" stroke-width="2.592"/> <g id="Group_148" data-name="Group 148"> <line id="Line_96" data-name="Line 96" x2="11.696" transform="translate(87.153 459.342)" fill="#ffffff" stroke="#36bfbd" stroke-miterlimit="10" stroke-width="2.592"/> </g> <path id="Path_514" data-name="Path 514" d="M95.987,440.226" fill="#ffffff" stroke="#36bfbd" stroke-miterlimit="10" stroke-width="2.592"/> <path id="Path_515" data-name="Path 515" d="M95.987,440.226" fill="#ffffff" stroke="#36bfbd" stroke-miterlimit="10" stroke-width="2.592"/> <path id="Path_516" data-name="Path 516" d="M107.744,441.482l-3.348,3.348-1.7-1.7" fill="#ffffff" stroke="#36bfbd" stroke-linecap="round" stroke-linejoin="round" stroke-width="2.074"/> <g id="Group_149" data-name="Group 149"> <line id="Line_97" data-name="Line 97" x2="11.696" transform="translate(87.153 466.393)" fill="#ffffff" stroke="#36bfbd" stroke-miterlimit="10" stroke-width="2.592"/> </g> <path id="Path_517" data-name="Path 517" d="M118.436,471.656a7.622,7.622,0,0,1-11.915,0C93.108,473.483,91.742,481.9,91.742,492.02c0,.709,3.008,2.372,6.4,2.372l.029-.056c0,.334,0,.661,0,.973a38.565,38.565,0,0,0,14.307,2.754,37.806,37.806,0,0,0,14.306-2.809c0-.3,0-.606,0-.922l.03.06c3.394,0,6.4-1.663,6.4-2.372C133.215,481.9,131.865,473.481,118.436,471.656Z" fill="#ffffff" stroke="#36bfbd" stroke-linecap="round" stroke-linejoin="round" stroke-width="2.592"/> <g id="Group_150" data-name="Group 150"> <path id="Path_518" data-name="Path 518" d="M121.083,457.68c0,5.768-4.088,10.812-8.229,10.812s-7.949-5.051-8.229-10.812,3.139-10.445,8.229-10.445S121.083,451.911,121.083,457.68Z" fill="#ffffff"/> <path id="Path_519" data-name="Path 519" d="M121.083,457.68c0,5.768-4.088,10.812-8.229,10.812s-7.949-5.051-8.229-10.812,3.139-10.445,8.229-10.445S121.083,451.911,121.083,457.68Z" fill="none" stroke="#36bfbd" stroke-linecap="round" stroke-linejoin="round" stroke-width="2.592"/> </g> <g id="Group_154" data-name="Group 154"> <g id="Group_151" data-name="Group 151"> <path id="Path_520" data-name="Path 520" d="M93.39,484.242c0,.709,1.728,2.372,5.122,2.372" fill="#ffffff" stroke="#36bfbd" stroke-linecap="round" stroke-linejoin="round" stroke-width="2.592"/> </g> <g id="Group_152" data-name="Group 152"> <path id="Path_521" data-name="Path 521" d="M133.582,491.922c0,.71-3.008,2.373-6.4,2.373" fill="#ffffff" stroke="#36bfbd" stroke-linecap="round" stroke-linejoin="round" stroke-width="2.592"/> </g> <g id="Group_153" data-name="Group 153"> <path id="Path_522" data-name="Path 522" d="M133.582,491.922c0-10.118-1.35-18.538-14.779-20.364a7.621,7.621,0,0,1-11.914,0c-13.414,1.828-14.78,10.247-14.78,20.364" fill="#ffffff" stroke="#36bfbd" stroke-linecap="round" stroke-linejoin="round" stroke-width="2.592"/> </g> </g> <g id="Group_155" data-name="Group 155"> <path id="Path_523" data-name="Path 523" d="M99.943,482.116c-1.441,3.67-1.4,9.255-1.4,13.1a38.581,38.581,0,0,0,14.306,2.753,37.8,37.8,0,0,0,14.306-2.809c0-3.49-.03-8.517-1.048-12.009" fill="#ffffff" stroke="#36bfbd" stroke-linecap="round" stroke-linejoin="round" stroke-width="2.592"/> </g> </g> </g>
</svg>