<!DOCTYPE svg PUBLIC "-//W3C//DTD SVG 1.1//EN" "http://www.w3.org/Graphics/SVG/1.1/DTD/svg11.dtd">
<!-- Uploaded to: SVG Repo, www.svgrepo.com, Transformed by: SVG Repo Mixer Tools -->
<svg fill="#2db9a1" width="800px" height="800px" viewBox="0 0 32 32" data-name="Layer 1" id="Layer_1" xmlns="http://www.w3.org/2000/svg">
<g id="SVGRepo_bgCarrier" stroke-width="0"/>
<g id="SVGRepo_tracerCarrier" stroke-linecap="round" stroke-linejoin="round"/>
<g id="SVGRepo_iconCarrier">
<rect height="1" width="9" x="11" y="2"/>
<rect height="1" width="12" x="8" y="29"/>
<rect height="1" transform="translate(-13 22) rotate(-90)" width="17" x="-4" y="17"/>
<polygon points="24 6 24 17 23 18 23 6 24 6"/>
<polygon points="23 23 24 22 24 26 23 26 23 23"/>
<rect height="1" width="7" x="4" y="8"/>
<rect height="1" width="8" x="13" y="5"/>
<rect height="1" width="8" x="13" y="8"/>
<rect height="1" width="14" x="7" y="11"/>
<rect height="1" width="14" x="7" y="14"/>
<rect height="1" width="14" x="7" y="17"/>
<polygon points="7 20 21 20 20 21 7 21 7 20"/>
<polygon points="7 23 18 23 17 24 7 24 7 23"/>
<rect height="1" transform="translate(-1.68 6.66) rotate(-45)" width="8.49" x="2.96" y="4.85"/>
<rect height="1" transform="translate(5 16) rotate(-90)" width="7" x="7" y="5"/>
<path d="M20,2V3h2a1,1,0,0,1,1,1V6h1V4a2,2,0,0,0-2-2Z"/>
<path d="M20,30V29h2a1,1,0,0,0,1-1V26h1v2a2,2,0,0,1-2,2Z"/>
<path d="M8,30V29H6a1,1,0,0,1-1-1V26H4v2a2,2,0,0,0,2,2Z"/>
<rect height="10" transform="translate(21.46 -9.51) rotate(45)" width="2" x="21.2" y="16.15"/>
<path d="M27.15,15.2h0a1,1,0,0,1,1,1v1a0,0,0,0,1,0,0h-2a0,0,0,0,1,0,0v-1A1,1,0,0,1,27.15,15.2Z" transform="translate(19.41 -14.46) rotate(45)"/>
<polygon points="15.84 27.51 15.84 27.51 17.25 24.68 18.67 26.1 15.84 27.51"/>
</g>
</svg>