<!DOCTYPE svg PUBLIC "-//W3C//DTD SVG 1.1//EN" "http://www.w3.org/Graphics/SVG/1.1/DTD/svg11.dtd">
<!-- Uploaded to: SVG Repo, www.svgrepo.com, Transformed by: SVG Repo Mixer Tools -->
<svg width="800px" height="800px" viewBox="0 0 32 32" xmlns="http://www.w3.org/2000/svg" fill="#000000">
<g id="SVGRepo_bgCarrier" stroke-width="0"/>
<g id="SVGRepo_tracerCarrier" stroke-linecap="round" stroke-linejoin="round"/>
<g id="SVGRepo_iconCarrier"> <defs> <style>.cls-1{fill:#dbe9fa;}.cls-2{fill:#36bfbd;}.cls-3{fill:#ffffff;}.cls-4{fill:#d9dce1;}</style> </defs> <g id="store"> <circle class="cls-1" cx="16" cy="16" r="16"/> <polygon class="cls-2" points="16 1.9 2 8.36 2 30 30 30 30 8.36 16 1.9"/> <rect class="cls-3" height="6" width="20" x="6" y="24"/> <rect class="cls-4" height="6" width="20" x="6" y="18"/> <rect class="cls-3" height="6" width="20" x="6" y="12"/> <path d="M16,1.9,2,8.36V30H30V8.36ZM8,28V26H24v2Zm0-6H24v2H8Zm0-4H24v2H8Zm16-2H8V14H24Zm4,12H26V12H6V28H4V9.64L16,4.1,28,9.64Z"/> </g> </g>
</svg>