<!DOCTYPE svg PUBLIC "-//W3C//DTD SVG 1.1//EN" "http://www.w3.org/Graphics/SVG/1.1/DTD/svg11.dtd">
<!-- Uploaded to: SVG Repo, www.svgrepo.com, Transformed by: SVG Repo Mixer Tools -->
<svg fill="#000000" width="800px" height="800px" viewBox="0 0 24 24" id="drawing-tablet-pencil" data-name="Line Color" xmlns="http://www.w3.org/2000/svg" class="icon line-color">
<g id="SVGRepo_bgCarrier" stroke-width="0"/>
<g id="SVGRepo_tracerCarrier" stroke-linecap="round" stroke-linejoin="round"/>
<g id="SVGRepo_iconCarrier">
<path id="secondary" d="M17,8h3a1,1,0,0,1,1,1V20a1,1,0,0,1-1,1H4a1,1,0,0,1-1-1V9A1,1,0,0,1,4,8h7" style="fill: none; stroke: #2db9a1; stroke-linecap: round; stroke-linejoin: round; stroke-width: 2;"/>
<path id="primary" d="M4,8A1,1,0,0,0,3,9V20a1,1,0,0,0,1,1H7V8ZM18.71,4.69l-1.4-1.4a1,1,0,0,0-1.4,0L11,8.2V11h2.8l4.91-4.91A1,1,0,0,0,18.71,4.69Z" style="fill: none; stroke: #2db9a1; stroke-linecap: round; stroke-linejoin: round; stroke-width: 2;"/>
</g>
</svg>