<!DOCTYPE svg PUBLIC "-//W3C//DTD SVG 1.1//EN" "http://www.w3.org/Graphics/SVG/1.1/DTD/svg11.dtd">
<!-- Uploaded to: SVG Repo, www.svgrepo.com, Transformed by: SVG Repo Mixer Tools -->
<svg fill="#24ccb8" height="800px" width="800px" version="1.1" id="Layer_1" xmlns="http://www.w3.org/2000/svg" xmlns:xlink="http://www.w3.org/1999/xlink" viewBox="0 0 512 512" xml:space="preserve">
<g id="SVGRepo_bgCarrier" stroke-width="0"/>
<g id="SVGRepo_tracerCarrier" stroke-linecap="round" stroke-linejoin="round"/>
<g id="SVGRepo_iconCarrier"> <g> <g> <path d="M75.253,309.145H41.454c-5.771,0-10.449,4.678-10.449,10.449s4.678,10.449,10.449,10.449h33.798 c5.771,0,10.449-4.678,10.449-10.449S81.023,309.145,75.253,309.145z"/> </g> </g> <g> <g> <path d="M75.253,335.008H41.454c-5.771,0-10.449,4.678-10.449,10.449c0,5.771,4.678,10.449,10.449,10.449h33.798 c5.771,0,10.449-4.678,10.449-10.449C85.701,339.686,81.023,335.008,75.253,335.008z"/> </g> </g> <g> <g> <path d="M75.253,360.87H41.454c-5.771,0-10.449,4.678-10.449,10.449c0,5.771,4.678,10.449,10.449,10.449h33.798 c5.771,0,10.449-4.678,10.449-10.449C85.701,365.548,81.023,360.87,75.253,360.87z"/> </g> </g> <g> <g> <path d="M156.263,309.145h-11.404c-5.771,0-10.449,4.678-10.449,10.449s4.678,10.449,10.449,10.449h11.404 c5.771,0,10.449-4.678,10.449-10.449S162.034,309.145,156.263,309.145z"/> </g> </g> <g> <g> <path d="M155.48,335.008h-10.62c-5.771,0-10.449,4.678-10.449,10.449c0,5.771,4.678,10.449,10.449,10.449h10.62 c5.771,0,10.449-4.678,10.449-10.449C165.929,339.686,161.251,335.008,155.48,335.008z"/> </g> </g> <g> <g> <path d="M10.586,484.315h-0.137C4.678,484.315,0,488.993,0,494.764c0,5.771,4.678,10.449,10.449,10.449h0.137 c5.771,0,10.449-4.678,10.449-10.449C21.035,488.993,16.357,484.315,10.586,484.315z"/> </g> </g> <g> <g> <path d="M501.551,484.315h-0.137c-5.771,0-10.449,4.678-10.449,10.449c0,5.771,4.678,10.449,10.449,10.449h0.137 c5.771,0,10.449-4.678,10.449-10.449C512,488.993,507.322,484.315,501.551,484.315z"/> </g> </g> <g> <g> <path d="M294.106,205.328c-6.441,0-11.68,5.239-11.68,11.68c0,6.44,5.239,11.679,11.68,11.679s11.68-5.239,11.68-11.679 C305.786,210.567,300.547,205.328,294.106,205.328z"/> </g> </g> <g> <g> <path d="M217.894,205.328c-6.441,0-11.68,5.239-11.68,11.68c0,6.44,5.239,11.679,11.68,11.679c6.44,0,11.679-5.239,11.68-11.679 C229.573,210.567,224.334,205.328,217.894,205.328z"/> </g> </g> <g> <g> <path d="M266.255,254.558h-20.422c-5.771,0-10.449,4.678-10.449,10.449c0,11.391,9.268,20.66,20.66,20.66 s20.659-9.267,20.66-20.66C276.704,259.236,272.026,254.558,266.255,254.558z"/> </g> </g> <g> <g> <path d="M296.584,439.385h-0.137c-5.771,0-10.449,4.678-10.449,10.449s4.678,10.449,10.449,10.449h0.137 c5.771,0,10.449-4.678,10.449-10.449S302.355,439.385,296.584,439.385z"/> </g> </g> <g> <g> <path d="M369.59,439.385h-39.203c-5.771,0-10.449,4.678-10.449,10.449s4.678,10.449,10.449,10.449h39.203 c5.771,0,10.449-4.678,10.449-10.449S375.361,439.385,369.59,439.385z"/> </g> </g> <g> <g> <path d="M215.3,439.385h-0.137c-5.771,0-10.449,4.678-10.449,10.449s4.678,10.449,10.449,10.449h0.137 c5.771,0,10.449-4.678,10.449-10.449S221.071,439.385,215.3,439.385z"/> </g> </g> <g> <g> <path d="M181.359,439.385h-39.201c-5.771,0-10.449,4.678-10.449,10.449s4.678,10.449,10.449,10.449h39.201 c5.771,0,10.449-4.678,10.449-10.449S187.13,439.385,181.359,439.385z"/> </g> </g> <g> <g> <path d="M484.36,66.817C484.327,51,471.45,38.144,455.626,38.144c-15.824,0-28.701,12.856-28.735,28.673l-3.657,360.968 c0,0.036,0,0.07,0,0.106c0,17.86,14.531,32.392,32.392,32.392s32.392-14.531,32.392-32.392c0.001-0.036,0.001-0.07,0-0.106 L484.36,66.817z M447.789,66.984c0.001-0.034,0.001-0.07,0.001-0.106c0-4.322,3.515-7.837,7.837-7.837 c4.322,0,7.837,3.515,7.837,7.837c0,0.036,0,0.07,0,0.106l2.598,256.417h-20.87L447.789,66.984z M455.627,439.385 c-6.323,0-11.47-5.131-11.494-11.449l0.847-83.637h21.293l0.847,83.637C467.096,434.253,461.949,439.385,455.627,439.385z"/> </g> </g> <g> <g> <path d="M467.661,484.315H409.64v-70.651c0-20.367-12.292-39.713-29.891-47.047l-67.248-28.019 c-2.391-0.996-3.936-3.313-3.936-5.905v-16.271l27.313-15.661c0.19-0.109,0.377-0.225,0.561-0.346 c13.676-9.031,22.657-25.093,24.022-42.965c0.021-0.264,0.03-0.531,0.03-0.796v-8.675c13.569-4.414,23.405-17.182,23.405-32.205 c0-15.022-9.836-27.791-23.405-32.205v-5.186c5.962-12.972,30.713-74.012-6.697-121.673c-17.287-22.03-38.021-31.39-56.694-26.032 c-15.796-11.704-34.503-17.407-56.98-17.407c-32.002,0-57.836,11.732-76.083,29.388c-13.99-10.431-30.94-16.109-48.593-16.109 c-18.686,0-35.908,6.344-49.663,16.969L48.635,26.374c-0.002-0.002-0.004-0.005-0.007-0.007C48.624,26.365,32.1,9.845,32.1,9.845 c-4.08-4.08-10.697-4.08-14.777,0s-4.081,10.697,0,14.777l9.474,9.475c-37.794,45.288-35.449,112.961,7.051,155.461 c19.398,19.398,44.596,30.951,71.144,33.342v15.866h-3.206c-5.771,0-10.449,4.678-10.449,10.449 c0,5.771,4.678,10.449,10.449,10.449h27.309c5.771,0,10.449-4.678,10.449-10.449c0-5.771-4.678-10.449-10.449-10.449h-3.206 v-15.883c0.976-0.089,1.952-0.191,2.929-0.305c2.454,11.977,11.227,21.677,22.691,25.406v8.675c0,0.265,0.01,0.532,0.03,0.796 c0.603,7.894,2.67,15.423,5.947,22.143H10.5c-5.771,0-10.449,4.678-10.449,10.449v136.482c0,5.771,4.678,10.449,10.449,10.449 h91.861v47.34h-57.92c-5.771,0-10.449,4.678-10.449,10.449c0,5.771,4.678,10.449,10.449,10.449h423.219 c5.771,0,10.449-4.678,10.449-10.449C478.11,488.995,473.432,484.315,467.661,484.315z M240.119,34.172 c26.203,0,40.133,9.316,48.332,16.323c3.161,2.702,7.622,3.271,11.362,1.452c10.727-5.22,24.762,1.382,37.541,17.666 c21.949,27.964,16.228,63.64,9.907,84.452c-4.608-5.502-10.703-11.981-18.566-18.929c-5.032-4.448-11.886-7.787-19.143-11.32 c-8.556-4.167-19.202-9.353-21.219-14.607c-1.317-3.43-4.338-5.917-7.958-6.549c-3.622-0.631-7.306,0.684-9.707,3.466 c-14.119,16.356-31.669,23.973-55.229,23.973c-28.874,0-44.801,15.613-53.079,28.712c-0.367,0.58-0.72,1.159-1.064,1.738 c-3.725-11.667-7.125-27.527-7.125-46.541C154.173,74.764,186.32,34.172,240.119,34.172z M298.244,174.889 c-20.593,0-37.867,14.438-42.259,33.721c-4.392-19.283-21.665-33.721-42.259-33.721c-13.199,0-25.031,5.936-32.988,15.271 l-7.7-3.894c2.413-9.558,11.75-35.268,42.401-35.268c25.025,0,45.472-7.26,62.14-22.131c6.467,5.772,14.973,9.915,22.822,13.737 c5.68,2.766,11.552,5.627,14.454,8.191c14.736,13.024,22.156,23.861,24.737,28.057v7.147l-8.275,4.259 C323.359,180.867,311.489,174.889,298.244,174.889z M320.696,218.237c0,12.38-10.072,22.452-22.452,22.452 s-22.452-10.072-22.452-22.452s10.072-22.451,22.452-22.451S320.696,205.857,320.696,218.237z M236.178,218.237 c0,12.38-10.072,22.452-22.452,22.452s-22.452-10.072-22.452-22.452s10.072-22.451,22.452-22.451S236.178,205.857,236.178,218.237 z M115.441,47.452c12.705,0,24.921,3.957,35.122,11.245c-11.269,16.633-17.289,36.098-17.289,55.31 c0,19.52,3.173,36.179,6.983,49.155c-7.757,3.485-16.234,5.311-24.816,5.311c-33.366,0-60.511-27.145-60.511-60.511 C54.93,74.596,82.076,47.452,115.441,47.452z M131.473,201.09c-5.327,0.914-10.666,1.36-15.971,1.367 c-0.021,0-0.04-0.003-0.061-0.003c-0.022,0-0.044,0.003-0.066,0.003c-24.811,0.001-48.811-9.741-66.75-27.679 c-34.345-34.345-36.658-88.759-6.971-125.826l9.347,9.347c-10.626,13.756-16.969,30.978-16.969,49.664 c0,44.889,36.52,81.409,81.409,81.409c11.038,0,21.948-2.256,32.018-6.558c0.308,0.689,0.612,1.355,0.906,1.982 C140.985,188.046,134.979,193.856,131.473,201.09z M149.003,215.777c0-6.421,4.7-11.751,10.838-12.768l11.57,5.851 c-0.669,3.022-1.033,6.157-1.033,9.377c0,23.903,19.447,43.35,43.35,43.35c20.593,0,37.867-14.438,42.259-33.722 c4.392,19.283,21.665,33.722,42.259,33.722c23.903,0,43.35-19.447,43.35-43.35c0-3.174-0.352-6.267-1.003-9.249l11.605-5.974 c6.12,1.03,10.802,6.353,10.802,12.762c0,7.144-5.813,12.956-12.956,12.956c-5.771,0-10.449,4.678-10.449,10.449v17.052 c-0.949,11.05-6.443,21.176-14.421,26.577l-56.1,32.167c-0.191,0.11-0.377,0.225-0.561,0.346c-7.831,5.173-17.185,5.174-25.02,0 c-0.187-0.124-0.377-0.241-0.573-0.352l-56.264-32.164c-7.985-5.406-13.285-15.293-14.246-26.572v-17.054 c0-5.771-4.678-10.449-10.449-10.449C154.815,228.733,149.003,222.921,149.003,215.777z M174.897,300.494 c0.194,0,0.382-0.019,0.575-0.029c0.163,0.106,0.327,0.208,0.495,0.305l27.469,15.704v16.221c0,2.59-1.545,4.908-3.936,5.905 l-67.249,28.02c-3.187,1.328-6.196,3.054-8.992,5.104v-71.23H174.897z M102.361,413.665h-0.001v2.414H20.949v-4.919h81.412 V413.665z M102.361,390.261h-0.001H20.949v-89.767h81.412V390.261z M245.602,484.315H123.258v-57.789v-12.863 c0-11.777,7.322-23.71,17.031-27.756L195.75,362.8l15.804,44.264c1.279,3.582,4.402,6.186,8.155,6.799 c0.563,0.092,1.126,0.137,1.686,0.137c3.171,0,6.21-1.446,8.209-3.985l15.997-20.319V484.315z M214.688,353.69 c6.391,5.992,13.972,10.494,22.249,13.229l-12.057,15.315L214.688,353.69z M224.316,333.202c0.003-0.17,0.019-0.337,0.019-0.508 v-4.275l7.939,4.539c7.334,4.764,15.53,7.145,23.728,7.145c8.199,0,16.398-2.383,23.733-7.149l7.933-4.548v4.288 c0,0.213,0.019,0.422,0.023,0.633c-7.495,9.917-19.081,15.757-31.638,15.757C243.432,349.085,231.806,343.198,224.316,333.202z M297.418,353.684l-10.193,28.551l-12.06-15.318C283.441,364.179,291.025,359.678,297.418,353.684z M388.742,484.315H266.5 v-94.621l15.999,20.321c2,2.54,5.037,3.985,8.209,3.985c0.56,0,1.123-0.045,1.686-0.137c3.753-0.613,6.876-3.217,8.155-6.799 l15.791-44.227l55.37,23.07c9.709,4.046,17.031,15.978,17.031,27.756V484.315z"/> </g> </g> </g>
</svg>