<!DOCTYPE svg PUBLIC "-//W3C//DTD SVG 1.1//EN" "http://www.w3.org/Graphics/SVG/1.1/DTD/svg11.dtd">
<!-- Uploaded to: SVG Repo, www.svgrepo.com, Transformed by: SVG Repo Mixer Tools -->
<svg width="800px" height="800px" viewBox="0 0 512 512" id="Layer_1" version="1.1" xml:space="preserve" xmlns="http://www.w3.org/2000/svg" xmlns:xlink="http://www.w3.org/1999/xlink" fill="#000000">
<g id="SVGRepo_bgCarrier" stroke-width="0"/>
<g id="SVGRepo_tracerCarrier" stroke-linecap="round" stroke-linejoin="round"/>
<g id="SVGRepo_iconCarrier"> <style type="text/css"> .st0{fill:#36bfbd;} </style> <g> <path class="st0" d="M396,49.3H116c-16.2,0-29.4,13.2-29.4,29.4v354.5c0,16.2,13.2,29.4,29.4,29.4H396c16.2,0,29.4-13.2,29.4-29.4 V78.7C425.5,62.5,412.3,49.3,396,49.3z M411.5,433.3c0,8.5-6.9,15.4-15.4,15.4H116c-8.5,0-15.4-6.9-15.4-15.4V78.7 c0-8.5,6.9-15.4,15.4-15.4H396c8.5,0,15.4,6.9,15.4,15.4V433.3z"/> <path class="st0" d="M383.2,84.2H128.8c-7.6,0-13.8,6.2-13.8,13.8v291.5c0,7.6,6.2,13.8,13.8,13.8h254.5c7.6,0,13.8-6.2,13.8-13.8 V98C397.1,90.4,390.9,84.2,383.2,84.2z M390.1,389.6c0,3.8-3.1,6.8-6.8,6.8H128.8c-3.8,0-6.8-3.1-6.8-6.8V98c0-3.8,3.1-6.8,6.8-6.8 h254.5c3.8,0,6.8,3.1,6.8,6.8V389.6z"/> <path class="st0" d="M331.3,243.8c0-12.2-2.9-23.7-8.1-33.8c-0.1-0.3-0.3-0.6-0.4-0.9C310.2,185,285,168.5,256,168.5 s-54.2,16.5-66.8,40.6c-0.2,0.3-0.3,0.6-0.4,0.9c-5.1,10.2-8.1,21.7-8.1,33.8s2.9,23.7,8.1,33.8c0.1,0.3,0.3,0.6,0.4,0.9 c12.6,24.1,37.8,40.6,66.8,40.6s54.2-16.5,66.8-40.6c0.2-0.3,0.3-0.6,0.4-0.9C328.4,267.5,331.3,256,331.3,243.8z M187.8,247.3 h16.8c0.3,8.9,1.6,17.6,3.9,25.7h-14.3C190.5,265.1,188.2,256.5,187.8,247.3z M194.2,214.6h14.3c-2.3,8.1-3.6,16.7-3.9,25.7h-16.8 C188.2,231.2,190.5,222.5,194.2,214.6z M324.2,240.3h-16.8c-0.3-8.9-1.6-17.6-3.9-25.7h14.3C321.5,222.5,323.8,231.2,324.2,240.3z M300.4,240.3h-16.7c-0.1-8.7-0.8-17.4-2.1-25.7h14.5C298.6,222.5,300.1,231.2,300.4,240.3z M259.5,310.9V280h13.9 c-1,4.9-2.2,9.4-3.6,13.5C266.9,302.3,263.2,308.5,259.5,310.9z M242.1,293.5c-1.4-4.1-2.6-8.6-3.6-13.5h13.9v30.9 C248.8,308.5,245.1,302.3,242.1,293.5z M252.5,176.7v30.9h-13.9c1-4.9,2.2-9.4,3.6-13.5C245.1,185.3,248.8,179.2,252.5,176.7z M269.9,194.1c1.4,4.1,2.6,8.6,3.6,13.5h-13.9v-30.9C263.2,179.2,266.9,185.3,269.9,194.1z M252.5,214.6v25.7h-17.2 c0.1-9,0.9-17.7,2.1-25.7H252.5z M252.5,247.3V273h-15.2c-1.2-8-1.9-16.7-2.1-25.7H252.5z M259.5,273v-25.7h17.2 c-0.1,9-0.9,17.7-2.1,25.7H259.5z M259.5,240.3v-25.7h15.2c1.2,8,1.9,16.7,2.1,25.7H259.5z M280.5,207.6 c-2.2-11.2-5.3-21.1-9.5-28.2c9.5,5.2,17.5,15.2,22.7,28.2H280.5z M241,179.5c-4.2,7-7.4,16.9-9.5,28.2h-13.2 C223.6,194.7,231.6,184.7,241,179.5z M230.3,214.6c-1.2,8.2-1.9,17-2.1,25.7h-16.7c0.3-9.1,1.8-17.8,4.2-25.7H230.3z M211.6,247.3 h16.7c0.1,8.7,0.8,17.4,2.1,25.7h-14.5C213.4,265.1,211.9,256.5,211.6,247.3z M231.5,280c2.2,11.2,5.3,21.1,9.5,28.2 c-9.5-5.2-17.5-15.2-22.7-28.2H231.5z M271,308.1c4.2-7,7.4-16.9,9.5-28.2h13.2C288.4,292.9,280.4,302.9,271,308.1z M281.7,273 c1.2-8.2,1.9-17,2.1-25.7h16.7c-0.3,9.1-1.8,17.8-4.2,25.7H281.7z M307.4,247.3h16.8c-0.5,9.1-2.7,17.8-6.5,25.7h-14.3 C305.8,264.9,307.1,256.3,307.4,247.3z M313.9,207.6h-12.7c-2.2-6-5-11.6-8.4-16.6c-2.2-3.2-4.5-6.1-6.9-8.7 C297.4,188,307.1,196.8,313.9,207.6z M226.1,182.4c-2.5,2.6-4.8,5.4-6.9,8.7c-3.3,5-6.1,10.6-8.4,16.6h-12.7 C204.9,196.8,214.6,188,226.1,182.4z M198.1,280h12.7c2.2,6,5,11.6,8.4,16.6c2.2,3.2,4.5,6.1,6.9,8.7 C214.6,299.6,204.9,290.8,198.1,280z M285.9,305.2c2.5-2.6,4.8-5.4,6.9-8.7c3.3-5,6.1-10.6,8.4-16.6h12.7 C307.1,290.8,297.4,299.6,285.9,305.2z"/> <path class="st0" d="M256,410.7c-8.5,0-15.3,6.9-15.3,15.3s6.9,15.3,15.3,15.3s15.3-6.9,15.3-15.3S264.5,410.7,256,410.7z M256,434.3c-4.6,0-8.3-3.7-8.3-8.3s3.7-8.3,8.3-8.3s8.3,3.7,8.3,8.3S260.6,434.3,256,434.3z"/> <circle class="st0" cx="256" cy="73.5" r="5.9"/> </g> </g>
</svg>